<?xml version="1.0" encoding="UTF-8" standalone="no"?>
<!-- Created with Inkscape (http://www.inkscape.org/) -->

<svg
   version="1.1"
   id="svg475"
   xml:space="preserve"
   width="1066.6667"
   height="1066.6667"
   viewBox="0 0 1066.6667 1066.6667"
   sodipodi:docname="deer-color-publicdomainvectors.org.svg"
   inkscape:version="1.1.2 (b8e25be833, 2022-02-05)"
   xmlns:inkscape="http://www.inkscape.org/namespaces/inkscape"
   xmlns:sodipodi="http://sodipodi.sourceforge.net/DTD/sodipodi-0.dtd"
   xmlns="http://www.w3.org/2000/svg"
   xmlns:svg="http://www.w3.org/2000/svg"><defs
     id="defs479"><clipPath
       clipPathUnits="userSpaceOnUse"
       id="clipPath489"><path
         d="M 0,800 H 800 V 0 H 0 Z"
         id="path487" /></clipPath></defs><sodipodi:namedview
     id="namedview477"
     pagecolor="#ffffff"
     bordercolor="#666666"
     borderopacity="1.0"
     inkscape:pageshadow="2"
     inkscape:pageopacity="0.0"
     inkscape:pagecheckerboard="0"
     showgrid="false"
     inkscape:zoom="0.77906244"
     inkscape:cx="533.33337"
     inkscape:cy="533.33337"
     inkscape:window-width="1920"
     inkscape:window-height="1018"
     inkscape:window-x="-8"
     inkscape:window-y="-8"
     inkscape:window-maximized="1"
     inkscape:current-layer="g481" /><g
     id="g481"
     inkscape:groupmode="layer"
     inkscape:label="deer-color-publicdomainvectors.org"
     transform="matrix(1.3333333,0,0,-1.3333333,0,1066.6667)"><g
       id="g483"><g
         id="g485"
         clip-path="url(#clipPath489)"><path
           d="m 685.273,18.575 c 3.397,-4.181 6.182,-6.601 8.429,-7.696 l 4.564,-0.22 c 3.302,1.934 3.953,9.212 2.931,16.073 l -30.076,5.551 c 5.224,-4.642 10.438,-9.133 14.152,-13.708"
           style="fill:#0054bd;fill-opacity:1;fill-rule:nonzero;stroke:none"
           id="path491" /><path
           d="m 698.266,10.659 -4.564,0.22 c 1.885,-0.918 3.391,-0.905 4.564,-0.22"
           style="fill:#1a60c6;fill-opacity:1;fill-rule:nonzero;stroke:none"
           id="path493" /><path
           d="m 680.936,359.039 -0.877,-7.52 c 0.691,2.471 0.961,4.992 0.877,7.52"
           style="fill:#8eaec4;fill-opacity:1;fill-rule:nonzero;stroke:none"
           id="path495" /><path
           d="m 671.121,32.283 30.076,-5.551 c -0.936,6.288 -3.276,12.222 -6.269,13.374 -3.527,1.361 -6.531,3.855 -9.086,7.082 l -20.878,-9.263 c 1.991,-1.915 4.075,-3.791 6.157,-5.642"
           style="fill:#0048b4;fill-opacity:1;fill-rule:nonzero;stroke:none"
           id="path497" /><path
           d="m 662.541,156.646 c -0.547,0.557 -1.092,1.116 -1.635,1.676 L 658.059,45.394 c 2.027,-2.574 4.391,-5.052 6.905,-7.469 l 20.878,9.263 c -9.446,11.928 -12.748,33.913 -13.485,46.058 -1.488,24.713 9.11,44.102 -9.816,63.4"
           style="fill:#0063c3;fill-opacity:1;fill-rule:nonzero;stroke:none"
           id="path499" /><path
           d="m 636.726,330.874 c 13.534,2.476 28.775,0 38.299,11.3 2.507,2.973 4.129,6.118 5.034,9.345 l 0.877,7.52 c -0.331,9.976 -6.144,20.081 -13.084,27.859 -1.282,1.787 -2.918,3.184 -4.885,4.201 1.549,-1.715 -0.586,-24.566 -5.29,-27.591 -8.72,-5.604 -21.336,-14.42 -33.16,-17.998 l 10.004,-15.093 c 0.699,0.16 1.426,0.314 2.205,0.457"
           style="fill:#9dcbcd;fill-opacity:1;fill-rule:nonzero;stroke:none"
           id="path501" /><path
           d="m 662.769,391.205 c 0.067,-0.033 0.13,-0.072 0.198,-0.106 -0.062,0.068 -0.126,0.106 -0.198,0.106"
           style="fill:#9dcbcd;fill-opacity:1;fill-rule:nonzero;stroke:none"
           id="path503" /><path
           d="m 643.314,177.994 -44.287,-3.048 c 16.269,-11.758 30.499,-29.019 39.732,-45.664 11.501,-20.733 9.012,-48.461 12.997,-71.07 0.803,-4.576 3.143,-8.81 6.303,-12.818 l 2.847,112.928 c -6.17,6.361 -12.122,12.914 -17.592,19.672"
           style="fill:#1989d1;fill-opacity:1;fill-rule:nonzero;stroke:none"
           id="path505" /><path
           d="m 618.96,219.691 -51.026,48.596 -4.858,-71.963 c 11.047,-6.254 22.277,-12.236 32.348,-18.885 1.211,-0.797 2.412,-1.632 3.603,-2.493 l 44.287,3.048 c -10.603,13.105 -19.379,26.976 -24.354,41.697"
           style="fill:#48aede;fill-opacity:1;fill-rule:nonzero;stroke:none"
           id="path507" /><path
           d="m 618.96,219.691 c -5.492,16.261 -6.343,33.56 0.102,52.006 l -51.128,-3.41 z"
           style="fill:#50aade;fill-opacity:1;fill-rule:nonzero;stroke:none"
           id="path509" /><path
           d="m 619.062,271.697 c 1.582,4.525 3.598,9.118 6.097,13.784 11.003,20.534 -16.73,38.939 9.362,44.936 l -10.004,15.093 c -3.031,-0.917 -6.01,-1.496 -8.857,-1.581 -6.855,-0.204 -16.29,3.77 -24.593,8.591 l -23.133,-84.233 z"
           style="fill:#7cc0e2;fill-opacity:1;fill-rule:nonzero;stroke:none"
           id="path511" /><path
           d="m 470.867,393.152 c -10.989,4.567 -21.806,9.538 -32.24,15.116 l 18.404,-50.529 z"
           style="fill:#dee2a2;fill-opacity:1;fill-rule:nonzero;stroke:none"
           id="path513" /><path
           d="m 567.934,268.287 23.133,84.233 c -6.206,3.604 -11.782,7.681 -15.164,10.844 -5.806,5.422 -26.125,7.268 -34.307,8.855 -0.59,0.114 -1.177,0.227 -1.759,0.341 l -82.806,-14.821 z"
           style="fill:#aae0e0;fill-opacity:1;fill-rule:nonzero;stroke:none"
           id="path515" /><path
           d="m 539.837,372.56 c -19.185,3.73 -34.37,7.16 -53.142,14.301 -5.299,2.017 -10.583,4.111 -15.828,6.291 l -13.836,-35.413 z"
           style="fill:#c7dfad;fill-opacity:1;fill-rule:nonzero;stroke:none"
           id="path517" /><path
           d="m 392.521,723.651 0.496,-16.531 c 3.077,8.246 4.174,15.345 -0.496,16.531"
           style="fill:#df4d33;fill-opacity:1;fill-rule:nonzero;stroke:none"
           id="path519" /><path
           d="m 533.196,215.719 c 9.026,-7.248 19.368,-13.446 29.88,-19.395 l 4.858,71.963 z"
           style="fill:#56b6e2;fill-opacity:1;fill-rule:nonzero;stroke:none"
           id="path521" /><path
           d="m 391.055,304.312 1.531,-3.129 c 31.787,-6.578 62.582,-12.969 94.093,-26.662 25.473,-11.065 20.96,-35.239 40.115,-53.26 2.041,-1.919 4.185,-3.76 6.402,-5.542 l 34.738,52.568 z"
           style="fill:#80d0ec;fill-opacity:1;fill-rule:nonzero;stroke:none"
           id="path523" /><path
           d="M 391.055,304.312 567.934,268.287 457.031,357.739 Z"
           style="fill:#abe3ef;fill-opacity:1;fill-rule:nonzero;stroke:none"
           id="path525" /><path
           d="m 457.031,357.739 -18.404,50.529 c -7.461,3.988 -14.729,8.28 -21.717,12.959 -11.957,8.002 -21.651,17.365 -29.415,27.724 L 349.77,391.739 Z"
           style="fill:#e6f0b6;fill-opacity:1;fill-rule:nonzero;stroke:none"
           id="path527" /><path
           d="m 389.285,301.866 c 1.102,-0.228 2.202,-0.457 3.301,-0.683 l -1.531,3.129 z"
           style="fill:#8fd5ed;fill-opacity:1;fill-rule:nonzero;stroke:none"
           id="path529" /><path
           d="m 387.891,302.154 c 0.465,-0.095 0.93,-0.191 1.394,-0.288 l 1.77,2.446 z"
           style="fill:#bbebe3;fill-opacity:1;fill-rule:nonzero;stroke:none"
           id="path531" /><path
           d="m 364.533,501.003 c -2.764,12.851 -4.009,26.185 -4.082,39.617 l -16.347,-32.311 z"
           style="fill:#f3bb73;fill-opacity:1;fill-rule:nonzero;stroke:none"
           id="path533" /><path
           d="m 349.77,391.739 41.285,-87.427 65.976,53.427 z"
           style="fill:#d5f3d7;fill-opacity:1;fill-rule:nonzero;stroke:none"
           id="path535" /><path
           d="m 349.549,744.218 c 9.509,20.301 -9.459,24.72 -12.2,7.002 -0.529,-3.41 8.702,-28.442 -5.474,-24.698 -14.688,3.904 -12.55,61.973 -19.642,61.364 -2.312,-0.196 -3.816,-2.146 -4.757,-5.227 l 8.987,-73.762 c 9.539,-5.361 17.811,-9.522 21.244,-11.386 8.816,-4.785 16.072,-8.916 19.089,-18.478 0.147,-0.463 0.295,-0.938 0.444,-1.419 l 8.385,27.197 c -10.425,9.801 -20.29,30.42 -16.076,39.407"
           style="fill:#ef4d1f;fill-opacity:1;fill-rule:nonzero;stroke:none"
           id="path537" /><path
           d="m 346.798,643.75 c -3.303,-2.441 -6.041,-5.203 -6.041,-9.168 l 0.04,-0.038 c -5.122,0 -10.242,0.171 -15.312,0.323 l 5.261,-43.178 z"
           style="fill:#ef4d1f;fill-opacity:1;fill-rule:nonzero;stroke:none"
           id="path539" /><path
           d="m 361.516,600.672 c 0.253,5.028 1.251,9.665 3.852,13.26 1.782,2.461 9.867,1.755 12.974,4.314 3.961,3.266 12.737,15.508 14.314,20.49 6.369,20.121 -27.493,-5.014 -23.768,-5.538 -7.116,0.383 8.909,43.612 9.827,45.333 1.074,2.009 9.802,16.522 14.302,28.589 l -0.496,16.531 c -0.518,0.132 -1.102,0.196 -1.767,0.175 -9.696,-0.304 -4.922,-26.368 -16.382,-24.243 -2.752,0.514 -5.771,2.431 -8.747,5.228 l -8.385,-27.197 c 2.524,-8.196 5.051,-18.816 -0.689,-26.24 -2.209,-2.86 -6.291,-5.065 -9.753,-7.624 l -16.052,-52.061 z"
           style="fill:#f4683e;fill-opacity:1;fill-rule:nonzero;stroke:none"
           id="path541" /><path
           d="m 344.104,508.309 16.347,32.311 c -0.059,10.589 0.609,21.239 1.835,31.762 0.924,7.935 -1.247,18.81 -0.77,28.29 l -30.77,-8.983 z"
           style="fill:#f7a559;fill-opacity:1;fill-rule:nonzero;stroke:none"
           id="path543" /><path
           d="m 349.77,391.739 37.725,57.212 c -11.628,15.513 -18.922,33.264 -22.962,52.052 l -20.429,7.306 z"
           style="fill:#f2e69e;fill-opacity:1;fill-rule:nonzero;stroke:none"
           id="path545" /><path
           d="m 306.946,728.93 c -1.122,-1.982 -19.09,17.019 -20.236,21.584 -5.075,20.148 -7.401,12.653 -13.42,-0.167 -5.498,-11.698 21.969,-29.535 43.173,-41.45 l -8.987,73.762 c -4.111,-13.444 2.481,-48.453 -0.53,-53.729"
           style="fill:#fb6507;fill-opacity:1;fill-rule:nonzero;stroke:none"
           id="path547" /><path
           d="m 325.485,634.867 c -16.73,0.503 -32.926,0.798 -46.957,-5.95 -10.462,-5.024 -27.512,-6.183 -42.674,-6.429 l 94.892,-30.799 z"
           style="fill:#fb6507;fill-opacity:1;fill-rule:nonzero;stroke:none"
           id="path549" /><path
           d="m 349.77,391.739 -114.172,-37.44 c 5.984,-3.326 11.829,-6.866 17.472,-10.704 1.508,-0.621 3.021,-1.237 4.534,-1.852 l 133.451,-37.431 z"
           style="fill:#e8f8c4;fill-opacity:1;fill-rule:nonzero;stroke:none"
           id="path551" /><path
           d="m 257.604,341.743 c 30.693,-12.488 62.303,-23.835 94.726,-31.731 12.056,-2.94 23.88,-5.435 35.561,-7.858 l 3.164,2.158 z"
           style="fill:#ddf5db;fill-opacity:1;fill-rule:nonzero;stroke:none"
           id="path553" /><path
           d="m 284.192,519.066 c -2.739,-25.695 -13.959,-47.428 -24.802,-73.043 -4.238,-10.018 -12.501,-24.075 -11.46,-35.239 1.664,-17.946 -24.977,-1.423 -37.832,4.727 l 12.641,-54.459 c 2.434,-1.214 4.855,-2.453 7.257,-3.721 l 114.108,150.978 z"
           style="fill:#ffe157;fill-opacity:1;fill-rule:nonzero;stroke:none"
           id="path555" /><path
           d="M 344.104,508.309 229.996,357.331 c 1.879,-0.992 3.748,-2 5.602,-3.032 l 114.172,37.44 z"
           style="fill:#f9f393;fill-opacity:1;fill-rule:nonzero;stroke:none"
           id="path557" /><path
           d="m 330.746,591.689 -53.403,-19.446 c 11.136,-6.83 5.534,-16.836 6.845,-29.298 0.886,-8.435 0.811,-16.328 0.004,-23.879 l 59.912,-10.757 z"
           style="fill:#fdb53f;fill-opacity:1;fill-rule:nonzero;stroke:none"
           id="path559" /><path
           d="m 235.854,622.488 c -6.315,-0.103 -12.304,-0.05 -17.351,-0.05 -8.175,0 7.556,-17.24 7.32,-23.064 -0.683,-16.831 35.803,-20.476 46.914,-24.873 1.788,-0.709 3.309,-1.462 4.606,-2.258 l 53.403,19.446 z"
           style="fill:#ff9b13;fill-opacity:1;fill-rule:nonzero;stroke:none"
           id="path561" /><path
           d="m 206.043,417.231 c -15.129,4.968 -43.498,11.933 -59.489,5.826 -20.512,-7.823 -12.183,-24.987 -1.325,-36.196 5.481,-5.665 8.258,-11.008 9.495,-16.22 l 25.971,-7.3 c -0.852,10.543 -1.239,18.935 -0.728,18.903 5.97,-0.372 19.308,-10.208 24.912,-12.744 6.001,-2.72 11.973,-5.513 17.86,-8.448 l -12.641,54.459 c -1.589,0.76 -2.967,1.363 -4.055,1.72"
           style="fill:#ffdd4d;fill-opacity:1;fill-rule:nonzero;stroke:none"
           id="path563" /><path
           d="m 154.183,326.052 c 2.212,-8.051 40.383,-45.128 46.475,-40.215 19.96,16.078 -7.223,24.1 -14.266,36.341 -1.947,3.377 -4.379,24.846 -5.697,41.163 l -25.971,7.3 c 3.44,-14.519 -5.089,-28.02 -0.541,-44.589"
           style="fill:#f6ee98;fill-opacity:1;fill-rule:nonzero;stroke:none"
           id="path565" /></g></g></g></svg>
